<svg xmlns="http://www.w3.org/2000/svg" width="20" height="24" viewBox="0 0 20 24">
    <g>
        <path fill="#f4515a" d="M375.243 1050.274a2 2 0 0 1-2-2v-20a2 2 0 0 1 2-2h11.17a2.009 2.009 0 0 1 1.416.586l4.826 4.826a2 2 0 0 1 .588 1.421v15.167a2 2 0 0 1-2 2zm-1-22v20a1.006 1.006 0 0 0 1 1h16a1.006 1.006 0 0 0 1-1v-15h-3.5a2.5 2.5 0 0 1-2.5-2.5v-3.5h-11a1 1 0 0 0-1 1zm13 2.5a1.5 1.5 0 0 0 1.5 1.5h3.086l-4.586-4.593zm-9.087 13.149a1.381 1.381 0 0 1-.372-1.294 1.075 1.075 0 0 1 .461-.678 11.431 11.431 0 0 1 2.512-1.418 28.7 28.7 0 0 0 1.45-3.036 7.084 7.084 0 0 1-.786-2.315 2.334 2.334 0 0 1 .076-1.037 1.036 1.036 0 0 1 1.121-.867s.991.089 1.153 1.458a7.216 7.216 0 0 1-.561 2.72 8.593 8.593 0 0 0 1.866 2.207 11.52 11.52 0 0 1 2.786.327 1.165 1.165 0 0 1 .622.381 1.021 1.021 0 0 1 .188 1.07 1.107 1.107 0 0 1-.215.381 1.054 1.054 0 0 1-1.334.295 13.45 13.45 0 0 1-2.366-1.561 10.19 10.19 0 0 0-3.316.7c-.409.746-.9 1.557-1.521 2.542a1.16 1.16 0 0 1-.522.44l-.034.008h-.006a2.118 2.118 0 0 0-.238.014c-.057 0-.108.011-.153.011a1.188 1.188 0 0 1-.817-.347zm.629-1.27c-.043.046-.116.117-.116.151v.025c-.037.135.019.275.176.459.005 0 .111.078.2.046.035-.017.051-.027.062-.061.112-.2.219-.36.319-.527.178-.289.345-.564.505-.83a7.522 7.522 0 0 0-1.148.737zm8.7-1.383a.139.139 0 0 0 .176-.045.727.727 0 0 0 .084-.146c.043-.106.038-.114 0-.149a.34.34 0 0 0-.179-.1 7.947 7.947 0 0 0-1.223-.231 11.5 11.5 0 0 0 1.132.671zm-5.5-1.217a11.11 11.11 0 0 1 1.78-.368 13.292 13.292 0 0 1-1.015-1.242c-.183.4-.435.956-.77 1.61zm.344-5.649a1.332 1.332 0 0 0-.046.633 5.833 5.833 0 0 0 .311 1.155 4.579 4.579 0 0 0 .237-1.388c-.061-.559-.316-.645-.354-.656-.029.005-.083.04-.153.256z" transform="translate(-1005 -157) translate(631.757 -869.274)"/>
    </g>
</svg>
