<svg xmlns="http://www.w3.org/2000/svg" width="24.002" height="24" viewBox="0 0 24.002 24">
    <g>
        <path fill="#2ca262" d="M396.793 964.96l-11.265-2.332a2.023 2.023 0 0 1-1.528-2.033V945.4a2.018 2.018 0 0 1 1.527-2.026l11.264-2.331a1.881 1.881 0 0 1 .35-.038A1.956 1.956 0 0 1 399 942.9h7.1a1.955 1.955 0 0 1 1.9 2v16.5a1.949 1.949 0 0 1-1.9 2h-7.157a1.921 1.921 0 0 1-1.817 1.6 1.591 1.591 0 0 1-.333-.04zm.2-22.948l-11.261 2.329a1.039 1.039 0 0 0-.732 1.051v15.2a1.038 1.038 0 0 0 .733 1.049L397 963.973a.671.671 0 0 0 .147.017.987.987 0 0 0 .855-1.067v-19.869a.993.993 0 0 0-.855-1.065.705.705 0 0 0-.144.016zM406 962.4a1.067 1.067 0 0 0 1.055-1l-.055-1.9h-5v2.9zm-5 0v-2.9h-2v2.9zm6-3.9v-3h-5v3zm-6 0v-3h-2v3zm6-4v-3h-5v3zm-6 0v-3h-2v3zm6-4v-3h-5v3zm-6 0v-3h-2v3zm6-4v-1.6a1.021 1.021 0 0 0-1-1h-4v2.6zm-6 0v-2.6h-2v2.6zM388.99 957a.478.478 0 0 1-.5-.446.422.422 0 0 1 .076-.236L390.89 953l-2.324-3.314a.409.409 0 0 1 .074-.574c.012-.01.024-.016.037-.025l.027-.016a.536.536 0 0 1 .689.119.183.183 0 0 0 .019.027l2.068 2.945 2.068-2.948a.541.541 0 0 1 .689-.16.417.417 0 0 1 .211.549l-.015.03-.013.024-.019.025-2.327 3.318 2.326 3.314a.415.415 0 0 1-.1.578.121.121 0 0 1-.03.02l-.024.015a.559.559 0 0 1-.266.067.528.528 0 0 1-.422-.208l-2.066-2.948-2.07 2.948a.51.51 0 0 1-.423.208z" transform="translate(-440.5 -760.323) translate(56.501 -180.677)"/>
    </g>
</svg>
